# xmcd CD database file
#
# Track frame offsets:
#	150
#	19947
#	34233
#	52300
#	63939
#	76466
#	93953
#	110815
#	126411
#
# Disc length: 1966 seconds
#
# Revision: 1
# Processed by: cddbd v1.5.1PL0 Copyright (c) Steve Scherf et al.
# Submitted via: CDex 1.40Release
#
DISCID=7f07ac09
DTITLE=San Saba County - Easy does it
DYEAR=2004
DGENRE=Country
TTITLE0=Friday Night Lights
TTITLE1=Wait and See
TTITLE2=Midland
TTITLE3=Wide Awake and Down
TTITLE4=Better Days
TTITLE5=Let that Curtain Fall
TTITLE6=J. Haywood
TTITLE7=G's Song
TTITLE8=Ole Kentucky
EXTD=YEAR: 2004 ID3G: 2
EXTT0=
EXTT1=
EXTT2=
EXTT3=
EXTT4=
EXTT5=
EXTT6=
EXTT7=
EXTT8=
PLAYORDER=
